<svg width="320" height="320" viewBox="0 0 320 320" fill="none" xmlns="http://www.w3.org/2000/svg">
<g clip-path="url(#clip0_5_3)">
<rect width="320" height="320" rx="64" fill="#292929"/>
<g clip-path="url(#clip1_5_3)">
<path d="M255.999 33.9999C258.297 34 260.502 34.9129 262.127 36.538C263.752 38.1633 264.665 40.3684 264.665 42.6669V86.8583C264.662 91.5805 262.785 96.1081 259.446 99.4472C256.107 102.786 251.579 104.664 246.857 104.667H202.665C200.367 104.667 198.162 103.753 196.537 102.128C194.912 100.503 193.999 98.2984 193.999 95.9999C193.999 93.7015 194.912 91.4973 196.537 89.872C198.162 88.2468 200.367 87.3331 202.665 87.3329H240.736L237.394 83.9316C219.969 66.1983 197.005 54.9549 172.313 52.0673C147.62 49.1798 122.681 54.8219 101.636 68.0566C80.5902 81.2912 64.7015 101.324 56.6065 124.83C48.5117 148.336 48.6969 173.903 57.1309 197.29C65.565 220.677 81.7417 240.477 102.977 253.406C124.211 266.335 149.229 271.615 173.877 268.371C198.525 265.127 221.324 253.553 238.49 235.57C255.645 217.599 266.143 194.305 268.248 169.551C268.477 167.458 269.478 165.526 271.054 164.13C272.63 162.734 274.669 161.975 276.774 162H276.794C278.008 162.003 279.208 162.259 280.317 162.752C281.427 163.244 282.422 163.963 283.238 164.861C284.055 165.76 284.676 166.818 285.061 167.97C285.446 169.121 285.586 170.34 285.474 171.549V171.553C282.909 199.758 270.906 226.273 251.404 246.81C231.903 267.348 206.043 280.707 178.008 284.726C149.973 288.744 121.402 283.188 96.9161 268.957C72.4302 254.726 53.4611 232.65 43.0762 206.302C32.6913 179.953 31.4979 150.871 39.6895 123.761C47.8812 96.6498 64.9788 73.0946 88.2169 56.9052C111.455 40.7159 139.475 32.8388 167.744 34.5478C196.014 36.2569 222.882 47.4522 244 66.3232L247.332 69.3017V42.6669C247.332 40.3684 248.245 38.1633 249.87 36.538C251.496 34.9127 253.701 33.9999 255.999 33.9999Z" fill="#F0F0F0" stroke="#292929" stroke-width="4"/>
</g>
<circle cx="272" cy="127" r="16" fill="#F50707"/>
<rect x="110" y="118" width="100" height="122" rx="20" stroke="#E9E9E9" stroke-width="8"/>
<path d="M130 138H161.996" stroke="white" stroke-width="4" stroke-linecap="round"/>
<path d="M138 154H158" stroke="white" stroke-width="4" stroke-linecap="round"/>
<path d="M138 166H158" stroke="white" stroke-width="4" stroke-linecap="round"/>
<path d="M138 178H162" stroke="white" stroke-width="4" stroke-linecap="round"/>
<path d="M178 138L190 138" stroke="white" stroke-width="4" stroke-linecap="round"/>
<path d="M178 154L190 154" stroke="white" stroke-width="4" stroke-linecap="round"/>
<path d="M178 166L190 166" stroke="white" stroke-width="4" stroke-linecap="round"/>
<path d="M178 178L190 178" stroke="white" stroke-width="4" stroke-linecap="round"/>
<rect x="129" y="192" width="62" height="30" rx="1" stroke="#B3B3B3" stroke-width="2"/>
<path d="M131 216L138.5 197.5L146.5 208L154.5 213L162.5 194L170.5 206L178.5 198L186.5 218L189 209" stroke="#1CBD2F" stroke-width="2" stroke-linecap="round" stroke-linejoin="round"/>
</g>
<defs>
<clipPath id="clip0_5_3">
<rect width="320" height="320" fill="white"/>
</clipPath>
<clipPath id="clip1_5_3">
<rect width="256" height="256" fill="white" transform="translate(32 32)"/>
</clipPath>
</defs>
</svg>
